<?xml version="1.0" encoding="UTF-8" standalone="no"?>
<svg width="272" height="92" viewBox="0 0 272 92" fill="none" xmlns="http://www.w3.org/2000/svg">
  <path d="M115.75 46.75C115.75 43.5833 116.083 40.6667 116.75 38H92V51.5H105.583C105 54.5833 103.333 57.0833 100.583 59L100.5 59.0583L109.667 66.0833L110.083 66.1667C114.667 61.9167 117 54.9167 117 46.75" fill="#4285F4"/>
  <path d="M92 72C99.4167 72 105.583 69.6667 110.083 66.1667L100.583 59C98.4167 60.4167 95.5833 61.4167 92 61.4167C85.3333 61.4167 79.75 57 77.25 50.8333L76.9167 50.8333L67.3333 58.1667L67.1667 58.3333C71.5833 66.5833 81 72 92 72Z" fill="#34A853"/>
  <path d="M77.25 50.8333C76.75 49.3333 76.4167 47.6667 76.4167 46C76.4167 44.3333 76.75 42.6667 77.25 41.1667L77.25 40.8333L67.5833 33.4167L67.1667 33.6667C65.4167 37.5 64.4167 41.6667 64.4167 46C64.4167 50.3333 65.4167 54.5 67.1667 58.3333L77.25 50.8333Z" fill="#FBBC05"/>
  <path d="M92 30.5833C96.0833 30.5833 99.4167 32 102.167 34.5833L110.667 26.25C105.583 21.5 99.4167 19 92 19C81 19 71.5833 24.4167 67.1667 32.6667L77.25 41.1667C79.75 35 85.3333 30.5833 92 30.5833Z" fill="#EA4335"/>
  <path d="M155.333 38.6667H143.333V50.6667H155.333V38.6667Z" fill="#4285F4"/>
  <path d="M155.333 26.6667H143.333V38.6667H155.333V26.6667Z" fill="#EA4335"/>
  <path d="M155.333 50.6667H143.333V62.6667H155.333V50.6667Z" fill="#34A853"/>
  <path d="M167.333 38.6667H155.333V50.6667H167.333V38.6667Z" fill="#FBBC05"/>
  <path d="M143.333 62.6667H131.333V50.6667H143.333V62.6667ZM143.333 26.6667V38.6667H131.333V26.6667H143.333ZM131.333 50.6667H119.333V38.6667H131.333V50.6667ZM131.333 26.6667H119.333V38.6667H131.333V26.6667Z" fill="#EA4335"/>
  <path d="M119.333 62.6667H131.333V50.6667H119.333V62.6667Z" fill="#34A853"/>
  <path d="M131.333 62.6667V74.6667H143.333V62.6667H131.333Z" fill="#EA4335"/>
  <path d="M131.333 74.6667H143.333V86.6667H131.333V74.6667Z" fill="#34A853"/>
  <path d="M190.333 33.3333H186V53.3333H190.333V33.3333Z" fill="#5F6368"/>
  <path d="M204.667 43.3333C203.333 42 201.667 41.3333 199.667 41.3333C195.667 41.3333 192.333 44.6667 192.333 48.6667C192.333 52.6667 195.667 56 199.667 56C201.667 56 203.333 55.3333 204.667 54.3333V55.3333C204.667 58 202.667 60 199.667 60C197.333 60 195.667 58.6667 195 57.3333L191.333 59C192.667 61.6667 195.667 64 199.667 64C204.667 64 208.667 60.3333 208.667 55.3333V42H204.667V43.3333ZM200 52C197.667 52 196 50.3333 196 48.6667C196 47 197.667 45.3333 200 45.3333C202.333 45.3333 204 47 204 48.6667C204 50.3333 202.333 52 200 52Z" fill="#5F6368"/>
  <path d="M223 41.6667C220.667 41.6667 218.667 42.6667 217.333 44.6667L221 46.3333C221.667 45.3333 222.333 45 223.333 45C224.667 45 226 45.6667 226 47V47.3333C225.333 47 224 46.6667 223 46.6667C219.667 46.6667 216.333 48.3333 216.333 51.6667C216.333 54.6667 219 56.6667 222 56.6667C224.333 56.6667 225.667 55.6667 226.333 54.6667V56.3333H230.333V47.3333C230.333 43.3333 227 41.6667 223 41.6667ZM222.667 53.3333C221.667 53.3333 220.333 52.6667 220.333 51.6667C220.333 50.3333 222 49.6667 223.667 49.6667C225 49.6667 225.667 50 226.333 50.3333C226 52 224.333 53.3333 222.667 53.3333Z" fill="#5F6368"/>
  <path d="M246.333 42L241.667 52.6667L236.667 42H232.333L239.667 56.6667L235.667 65.3333H240L250.667 42H246.333Z" fill="#5F6368"/>
  <path d="M251.667 55.6667C253.667 55.6667 255 54.3333 255 52.3333C255 50.3333 253.667 49 251.667 49C249.667 49 248.333 50.3333 248.333 52.3333C248.333 54.3333 249.667 55.6667 251.667 55.6667Z" fill="#5F6368"/>
  <path d="M264.333 55.6667C266.333 55.6667 267.667 54.3333 267.667 52.3333C267.667 50.3333 266.333 49 264.333 49C262.333 49 261 50.3333 261 52.3333C261 54.3333 262.333 55.6667 264.333 55.6667Z" fill="#5F6368"/>
  <path d="M177.667 54.6667C175.333 54.6667 173.333 52.6667 173.333 50C173.333 47.3333 175.333 45.3333 177.667 45.3333C179 45.3333 180 46 180.667 47L184 44.6667C182.667 42.6667 180.333 41.3333 177.667 41.3333C173 41.3333 169.333 45 169.333 50C169.333 55 173 58.6667 177.667 58.6667C180.333 58.6667 182.667 57.3333 184.333 55C185.667 53.3333 186.333 51 186.333 49H177.667V53H182.333C182 54 181 54.6667 177.667 54.6667Z" fill="#5F6368"/>
</svg>
