<?xml version="1.0" encoding="UTF-8" standalone="no"?>
<svg width="140" height="32" viewBox="0 0 140 32" fill="none" xmlns="http://www.w3.org/2000/svg">
  <!-- Google Logo -->
  <path d="M31.6 16.3c0-1.1.1-2.2.3-3.2H16.5v6.1h8.5c-.4 2-1.5 3.7-3.3 4.8v4l5.3 4.1c3.1-2.9 4.9-7.1 4.9-11.8z" fill="#4285F4"/>
  <path d="M16.5 32c4.4 0 8.1-1.5 10.8-4l-5.3-4.1c-1.4 1-3.3 1.5-5.5 1.5-4.2 0-7.8-2.9-9.1-6.7H2v4.1c2.7 5.4 8.3 9.2 14.5 9.2z" fill="#34A853"/>
  <path d="M7.4 18.7c-.3-.9-.5-1.9-.5-2.9 0-1 .2-2 .5-2.9V8.8H2c-1.3 2.5-2 5.3-2 8.2s.7 5.7 2 8.2l5.4-4.1v-2.4z" fill="#FBBC05"/>
  <path d="M16.5 7.4c2.4 0 4.5.8 6.2 2.4l4.7-4.7C24.5 2.1 20.8.5 16.5.5 10.3.5 4.7 4.3 2 9.7l5.4 4.1c1.3-3.8 4.9-6.4 9.1-6.4z" fill="#EA4335"/>
  
  <!-- Meet Text -->
  <path d="M44.5 8.2h-5.8v17.5h5.8V8.2z" fill="#5F6368"/>
  <path d="M59.8 17.3c-.7-1.4-2.3-2.6-4.3-2.6-2.6 0-4.8 2-4.8 5s2.2 5 5 5c1.9 0 3.4-1.1 4.1-2.1v1.7c0 2.6-1.4 4-3.8 4-1.8 0-3-1-3.5-1.9l-3.9 1.6c1.3 2.7 3.9 4.3 7.4 4.3 4.4 0 7.9-2.5 7.9-7.7V15h-4.1v2.3zm-3.8 7.4c-1.6 0-2.9-1.3-2.9-3s1.3-3 2.9-3c1.6 0 2.9 1.3 2.9 3s-1.3 3-2.9 3z" fill="#5F6368"/>
  <path d="M73.5 14.7c-2.4 0-4.9 1.1-5.9 3.4l4 1.7c.4-1 1.6-1.4 2.7-1.4 1.5 0 3.1.9 3.1 2.5v.2c-.5-.3-1.7-.8-3.1-.8-2.9 0-5.8 1.6-5.8 4.5 0 2.7 2.4 4.4 5 4.4 2 0 3.1-.9 3.8-2h.1v1.6h4.3V21.3c0-5.3-4-6.6-8.2-6.6zm-.5 11c-1 0-2.4-.5-2.4-1.7 0-1.5 1.7-2.1 3.1-2.1.9 0 1.7.2 2.4.5-.2 1.6-1.8 3.3-3.1 3.3z" fill="#5F6368"/>
  <path d="M98.3 15l-5.1 12.9-5.1-12.9h-6.2l8.3 18.9-4.7 10.5h6l12.8-29.4h-6z" fill="#5F6368"/>
  <path d="M105.3 25.7c0 1.7 1.4 3 3.1 3 1.7 0 3.1-1.3 3.1-3 0-1.7-1.4-3-3.1-3-1.7 0-3.1 1.3-3.1 3z" fill="#5F6368"/>
  <path d="M118.3 25.7c0 1.7 1.4 3 3.1 3 1.7 0 3.1-1.3 3.1-3 0-1.7-1.4-3-3.1-3-1.7 0-3.1 1.3-3.1 3z" fill="#5F6368"/>
</svg>
