<?xml version="1.0" encoding="UTF-8" standalone="no"?>
<svg width="150" height="40" viewBox="0 0 150 40" fill="none" xmlns="http://www.w3.org/2000/svg">
  <!-- Google Logo -->
  <path d="M24.5 12.5C24.5 11.7 24.6 11 24.8 10.3H14V15.1H20C19.8 16.3 19.1 17.3 18 18L18 20.2L21.5 22.9C23.5 21 24.5 17.9 24.5 14.2" fill="#4285F4"/>
  <path d="M14 25C17 25 19.5 24 21.5 22.3L18 19.6C17 20.2 15.7 20.6 14 20.6C11 20.6 8.5 18.6 7.5 16H4V18.7C6 22.5 9.7 25 14 25Z" fill="#34A853"/>
  <path d="M7.5 16C7.3 15.4 7.1 14.7 7.1 14C7.1 13.3 7.3 12.6 7.5 12H4V14.7C4 14.7 7.5 16 7.5 16Z" fill="#FBBC05"/>
  <path d="M14 7.4C15.7 7.4 17.2 8 18.3 9.1L21.4 6C19.5 4.2 17 3 14 3C9.7 3 6 5.5 4 9.3L7.5 12C8.5 9.4 11 7.4 14 7.4Z" fill="#EA4335"/>
  
  <!-- Meet Text -->
  <path d="M35 10H30V25H35V10Z" fill="#4285F4"/>
  <path d="M45 17.5C43.5 16 41.5 15 39.5 15C35.5 15 32 18.5 32 22.5C32 26.5 35.5 30 39.5 30C41.5 30 43.5 29 45 27.5V28.5C45 31 43 33 40 33C37.5 33 35.5 31.5 35 30L31 32C32.5 35 35.5 37 40 37C45 37 49 33.5 49 28.5V15.5H45V17.5ZM40 26C37.5 26 36 24.5 36 22.5C36 20.5 37.5 19 40 19C42.5 19 44 20.5 44 22.5C44 24.5 42.5 26 40 26Z" fill="#5F6368"/>
  <path d="M65 15.5C62.5 15.5 60.5 16.5 59 18.5L63 20.5C63.5 19.5 64.5 19 65.5 19C67 19 68.5 20 68.5 21.5V22C67.5 21.5 66 21 65 21C61.5 21 58 23 58 26.5C58 30 61 32 64 32C66.5 32 68 31 69 30V31.5H73V22C73 18 69.5 15.5 65 15.5ZM64.5 28.5C63 28.5 62 27.5 62 26.5C62 25 64 24 66 24C67.5 24 68.5 24.5 69 25C68.5 27 66.5 28.5 64.5 28.5Z" fill="#5F6368"/>
  <path d="M90 16L85 27L80 16H75.5L83 31.5L79 40H83.5L95 16H90Z" fill="#5F6368"/>
  <path d="M96 30C98 30 99.5 28.5 99.5 26.5C99.5 24.5 98 23 96 23C94 23 92.5 24.5 92.5 26.5C92.5 28.5 94 30 96 30Z" fill="#5F6368"/>
  <path d="M110 30C112 30 113.5 28.5 113.5 26.5C113.5 24.5 112 23 110 23C108 23 106.5 24.5 106.5 26.5C106.5 28.5 108 30 110 30Z" fill="#5F6368"/>
  <path d="M55 29C52.5 29 50.5 27 50.5 24C50.5 21 52.5 19 55 19C56.5 19 57.5 20 58 21L62 18.5C60.5 16.5 58 15 55 15C50 15 46 19 46 24C46 29 50 33 55 33C58 33 60.5 31.5 62.5 29C64 27 64.5 24.5 64.5 22.5H55V26.5H60.5C60 28 59 29 55 29Z" fill="#5F6368"/>
</svg>
