<svg version="1.1" id="Layer_1" xmlns="http://www.w3.org/2000/svg" xmlns:xlink="http://www.w3.org/1999/xlink" x="0px" y="0px"
	 width="100%" viewBox="0 0 248 80" enable-background="new 0 0 248 80" xml:space="preserve">
<path fill="#000000" opacity="1.000000" stroke="none" 
	d="
M161.000000,81.000000 
	C107.333351,81.000000 54.166698,81.000000 1.000036,81.000000 
	C1.000024,54.333359 1.000024,27.666714 1.000012,1.000054 
	C83.666618,1.000036 166.333237,1.000036 248.999878,1.000018 
	C248.999924,27.666611 248.999924,54.333221 248.999969,80.999916 
	C219.833328,81.000000 190.666672,81.000000 161.000000,81.000000 
M8.026874,24.920567 
	C8.072737,32.271175 8.118600,39.621784 8.030833,47.892727 
	C8.027966,63.533352 6.055772,62.126854 22.504416,61.904152 
	C22.669125,61.901920 22.833281,61.858570 23.927946,61.958530 
	C34.413872,61.971859 44.900661,61.912033 55.385292,62.035580 
	C59.413563,62.083042 61.224117,60.394016 61.018383,56.372414 
	C60.905346,54.162811 60.998161,51.942673 60.998161,48.955318 
	C64.233505,51.607059 66.567284,53.669662 69.072594,55.497089 
	C70.030304,56.195660 71.452232,56.780891 72.524620,56.599934 
	C73.152336,56.494003 73.916832,54.777679 73.923889,53.780869 
	C74.016853,40.663052 73.985779,27.544355 73.985779,13.401874 
	C71.516609,14.245898 69.591988,14.529589 68.110954,15.494281 
	C65.646484,17.099543 63.466492,19.141552 61.020790,20.095015 
	C61.013653,17.763334 60.942265,15.429665 61.014370,13.100437 
	C61.123615,9.571430 59.535145,7.940133 55.955818,7.978810 
	C44.968395,8.097537 33.979927,8.119316 22.337536,8.256137 
	C19.201378,11.369570 15.963193,14.388756 12.967398,17.631849 
	C11.175838,19.571302 9.763828,21.861364 8.026874,24.920567 
M125.182335,42.414165 
	C123.130623,46.589947 119.463402,48.023422 115.135292,48.309326 
	C109.448410,48.684982 104.607574,45.849548 102.443855,40.899055 
	C99.987984,35.280125 101.035362,29.155243 105.091225,25.417702 
	C108.976120,21.837713 116.282440,20.379694 120.244049,23.278719 
	C124.044777,26.060009 125.732384,24.331059 127.638992,21.409405 
	C124.144722,16.690641 119.375832,15.853005 113.962807,15.923152 
	C106.747467,16.016653 101.116623,18.597277 97.557922,24.959757 
	C93.619919,32.000340 93.542427,39.106365 98.012749,45.966396 
	C102.733360,53.210526 112.014915,56.322876 121.063377,53.879810 
	C127.242142,52.211555 132.444260,45.119106 132.839203,37.222954 
	C132.906250,35.882797 131.414108,33.326298 130.507095,33.262798 
	C125.117867,32.885509 119.688850,33.076431 113.962013,33.076431 
	C114.108589,35.408501 114.208115,36.991898 114.334717,39.006145 
	C117.487595,39.006145 120.283951,39.025944 123.079849,38.999275 
	C124.984558,38.981110 126.531876,39.228107 125.182335,42.414165 
M196.612427,54.013451 
	C199.666245,54.013451 202.720062,54.013451 205.740692,54.013451 
	C204.278748,60.374283 200.703110,61.563587 195.144806,57.824482 
	C193.791595,56.914173 191.480728,57.427502 189.610199,57.286240 
	C190.129822,59.018177 190.110703,61.389011 191.267929,62.364830 
	C195.065125,65.566826 199.964783,67.435799 204.365402,64.737747 
	C207.532089,62.796211 211.175079,59.033165 211.587051,55.708588 
	C212.616470,47.401047 211.926514,38.880451 211.926514,30.524378 
	C206.931458,30.018318 202.393234,28.934904 197.961365,29.267754 
	C192.449234,29.681732 188.725708,34.446381 187.634064,40.789124 
	C186.742096,45.971687 189.628006,50.573555 196.612427,54.013451 
M225.415054,34.024910 
	C221.097824,40.499325 222.475143,48.954224 228.463486,52.737972 
	C234.549026,56.583145 242.069366,54.818916 245.855408,48.541298 
	C243.528366,46.347328 241.560684,45.038349 238.354095,47.887527 
	C235.509933,50.414631 232.722488,49.330795 231.123077,45.664474 
	C235.446945,43.771214 239.405838,41.717129 243.583084,40.312233 
	C246.806152,39.228245 246.239563,37.793232 245.068329,35.552708 
	C241.259842,28.267271 231.600586,26.439442 225.415054,34.024910 
M166.821136,52.931038 
	C167.735550,53.288967 168.635101,53.692257 169.566849,53.997211 
	C174.396683,55.577969 179.943954,54.122952 182.959091,50.510780 
	C186.311874,46.494160 187.332474,39.190449 184.483948,35.232815 
	C181.472260,31.048483 177.316040,28.313435 171.781052,29.049887 
	C166.614624,29.737299 162.678040,32.703339 161.396408,37.568611 
	C159.911224,43.206665 160.589096,48.837147 166.821136,52.931038 
M134.005493,44.125294 
	C135.117874,50.167908 139.495834,54.143566 145.826111,54.859676 
	C150.608551,55.400688 155.858200,51.887260 158.133270,46.622868 
	C160.384811,41.412933 159.134964,36.028324 154.775223,32.294239 
	C150.618240,28.733805 145.759918,27.659895 140.990524,30.201567 
	C136.041428,32.839005 133.001282,37.141068 134.005493,44.125294 
M220.997757,20.773651 
	C221.405624,16.031361 218.464294,16.837238 215.333740,17.398243 
	C215.333740,29.534283 215.333740,41.552181 215.333740,53.719536 
	C217.251999,53.719536 218.835495,53.719536 220.999603,53.719536 
	C220.999603,42.886127 220.999603,32.300037 220.997757,20.773651 
z"/>
<path fill="#00AC47" opacity="1.000000" stroke="none" 
	d="
M61.166706,20.999641 
	C63.466492,19.141552 65.646484,17.099543 68.110954,15.494281 
	C69.591988,14.529589 71.516609,14.245898 73.985779,13.401874 
	C73.985779,27.544355 74.016853,40.663052 73.923889,53.780869 
	C73.916832,54.777679 73.152336,56.494003 72.524620,56.599934 
	C71.452232,56.780891 70.030304,56.195660 69.072594,55.497089 
	C66.567284,53.669662 64.233505,51.607059 60.998161,48.955318 
	C60.998161,51.942673 60.905346,54.162811 61.018383,56.372414 
	C61.224117,60.394016 59.413563,62.083042 55.385292,62.035580 
	C44.900661,61.912033 34.413872,61.971859 23.463177,61.441521 
	C22.944521,56.275692 22.890633,51.626873 22.965458,46.728691 
	C23.396143,46.266827 23.698112,46.054329 24.465412,45.902168 
	C31.482162,45.962502 38.033585,45.962502 45.186333,45.962502 
	C45.186333,41.888847 45.186333,38.451946 45.364868,34.997425 
	C45.543407,34.979805 45.900364,34.943413 46.079865,35.234001 
	C50.498714,39.217113 54.738064,42.909637 59.938694,47.439453 
	C59.938694,38.165386 59.938694,30.535301 60.042973,22.636232 
	C60.487068,21.911381 60.826885,21.455511 61.166706,20.999641 
z"/>
<path fill="#FFBA00" opacity="1.000000" stroke="none" 
	d="
M61.093750,20.547329 
	C60.826885,21.455511 60.487068,21.911381 59.730812,22.779396 
	C54.843040,27.108833 50.371700,31.026123 45.900364,34.943413 
	C45.900364,34.943413 45.543407,34.979805 45.283451,34.538986 
	C45.023495,30.863518 45.023495,27.628864 45.023495,24.166479 
	C37.693886,24.166479 30.847012,24.166479 23.750763,24.083263 
	C23.335121,23.944632 23.168850,23.889215 23.002037,23.378050 
	C22.998285,18.007793 22.995075,13.093289 22.991865,8.178785 
	C33.979927,8.119316 44.968395,8.097537 55.955818,7.978810 
	C59.535145,7.940133 61.123615,9.571430 61.014370,13.100437 
	C60.942265,15.429665 61.013653,17.763334 61.093750,20.547329 
z"/>
<path fill="#5F6368" opacity="1.000000" stroke="none" 
	d="
M125.408401,42.090431 
	C126.531876,39.228107 124.984558,38.981110 123.079849,38.999275 
	C120.283951,39.025944 117.487595,39.006145 114.334717,39.006145 
	C114.208115,36.991898 114.108589,35.408501 113.962013,33.076431 
	C119.688850,33.076431 125.117867,32.885509 130.507095,33.262798 
	C131.414108,33.326298 132.906250,35.882797 132.839203,37.222954 
	C132.444260,45.119106 127.242142,52.211555 121.063377,53.879810 
	C112.014915,56.322876 102.733360,53.210526 98.012749,45.966396 
	C93.542427,39.106365 93.619919,32.000340 97.557922,24.959757 
	C101.116623,18.597277 106.747467,16.016653 113.962807,15.923152 
	C119.375832,15.853005 124.144722,16.690641 127.638992,21.409405 
	C125.732384,24.331059 124.044777,26.060009 120.244049,23.278719 
	C116.282440,20.379694 108.976120,21.837713 105.091225,25.417702 
	C101.035362,29.155243 99.987984,35.280125 102.443855,40.899055 
	C104.607574,45.849548 109.448410,48.684982 115.135292,48.309326 
	C119.463402,48.023422 123.130623,46.589947 125.408401,42.090431 
z"/>
<path fill="#5F6368" opacity="1.000000" stroke="none" 
	d="
M196.233826,53.956036 
	C189.628006,50.573555 186.742096,45.971687 187.634064,40.789124 
	C188.725708,34.446381 192.449234,29.681732 197.961365,29.267754 
	C202.393234,28.934904 206.931458,30.018318 211.926514,30.524378 
	C211.926514,38.880451 212.616470,47.401047 211.587051,55.708588 
	C211.175079,59.033165 207.532089,62.796211 204.365402,64.737747 
	C199.964783,67.435799 195.065125,65.566826 191.267929,62.364830 
	C190.110703,61.389011 190.129822,59.018177 189.610199,57.286243 
	C191.480728,57.427502 193.791595,56.914173 195.144806,57.824482 
	C200.703110,61.563587 204.278748,60.374283 205.740692,54.013451 
	C202.720062,54.013451 199.666245,54.013451 196.233826,53.956036 
M194.829315,38.561825 
	C193.186279,41.917351 193.439224,45.363472 196.407852,47.422424 
	C198.008881,48.532856 201.910370,48.791233 202.946472,47.699577 
	C204.695740,45.856464 206.012924,42.505089 205.695709,40.019760 
	C204.958389,34.243088 200.154922,33.413193 194.829315,38.561825 
z"/>
<path fill="#5F6368" opacity="1.000000" stroke="none" 
	d="
M225.646561,33.714783 
	C231.600586,26.439442 241.259842,28.267271 245.068329,35.552708 
	C246.239563,37.793232 246.806152,39.228245 243.583084,40.312233 
	C239.405838,41.717129 235.446945,43.771214 231.123077,45.664474 
	C232.722488,49.330795 235.509933,50.414631 238.354095,47.887527 
	C241.560684,45.038349 243.528366,46.347328 245.855408,48.541298 
	C242.069366,54.818916 234.549026,56.583145 228.463486,52.737972 
	C222.475143,48.954224 221.097824,40.499325 225.646561,33.714783 
M231.626160,39.787979 
	C233.929535,38.704521 236.232910,37.621063 238.725037,36.448822 
	C234.362549,34.194103 230.708511,35.331959 229.523361,39.126701 
	C229.483810,39.253395 230.468414,39.699951 231.626160,39.787979 
z"/>
<path fill="#5F6368" opacity="1.000000" stroke="none" 
	d="
M166.485565,52.750908 
	C160.589096,48.837147 159.911224,43.206665 161.396408,37.568611 
	C162.678040,32.703339 166.614624,29.737299 171.781052,29.049887 
	C177.316040,28.313435 181.472260,31.048483 184.483948,35.232815 
	C187.332474,39.190449 186.311874,46.494160 182.959091,50.510780 
	C179.943954,54.122952 174.396683,55.577969 169.566849,53.997211 
	C168.635101,53.692257 167.735550,53.288967 166.485565,52.750908 
M167.025986,40.762890 
	C167.255966,46.547619 171.192749,50.520817 174.915543,48.277248 
	C177.120499,46.948414 179.670517,43.887707 179.586380,41.701138 
	C179.499039,39.430706 176.837708,36.203609 174.556412,35.320042 
	C171.110397,33.985363 168.312485,36.317062 167.025986,40.762890 
z"/>
<path fill="#5F6368" opacity="1.000000" stroke="none" 
	d="
M134.003632,43.700558 
	C133.001282,37.141068 136.041428,32.839005 140.990524,30.201567 
	C145.759918,27.659895 150.618240,28.733805 154.775223,32.294239 
	C159.134964,36.028324 160.384811,41.412933 158.133270,46.622868 
	C155.858200,51.887260 150.608551,55.400688 145.826111,54.859676 
	C139.495834,54.143566 135.117874,50.167908 134.003632,43.700558 
M146.487595,35.013382 
	C141.807938,35.375252 139.294128,38.219532 140.240219,42.525314 
	C140.767654,44.925793 143.275040,48.032940 145.497330,48.655987 
	C148.968933,49.629295 151.803360,46.838215 152.673828,43.389549 
	C153.776230,39.022007 151.636948,36.169712 146.487595,35.013382 
z"/>
<path fill="#2684FC" opacity="1.000000" stroke="none" 
	d="
M23.002581,23.833801 
	C23.168850,23.889215 23.335121,23.944632 23.750755,24.541172 
	C24.000109,32.002140 24.000095,38.921986 24.000082,45.841831 
	C23.698112,46.054329 23.396143,46.266827 22.511410,46.734203 
	C17.340584,46.983521 12.752523,46.977955 8.164463,46.972389 
	C8.118600,39.621784 8.072737,32.271175 8.558407,24.459602 
	C13.727488,23.943693 18.365034,23.888748 23.002581,23.833801 
z"/>
<path fill="#5F6368" opacity="1.000000" stroke="none" 
	d="
M220.998688,21.243799 
	C220.999603,32.300037 220.999603,42.886127 220.999603,53.719536 
	C218.835495,53.719536 217.251999,53.719536 215.333740,53.719536 
	C215.333740,41.552181 215.333740,29.534283 215.333740,17.398243 
	C218.464294,16.837238 221.405624,16.031361 220.998688,21.243799 
z"/>
<path fill="#0066DA" opacity="1.000000" stroke="none" 
	d="
M8.097649,47.432556 
	C12.752523,46.977955 17.340584,46.983521 22.382694,46.983570 
	C22.890633,51.626873 22.944521,56.275692 22.998053,61.379463 
	C22.833281,61.858570 22.669125,61.901920 22.504416,61.904152 
	C6.055772,62.126854 8.027966,63.533352 8.097649,47.432556 
z"/>
<path fill="#E84234" opacity="1.000000" stroke="none" 
	d="
M23.002037,23.378052 
	C18.365034,23.888748 13.727488,23.943693 8.635576,23.996235 
	C9.763828,21.861364 11.175838,19.571302 12.967398,17.631849 
	C15.963193,14.388756 19.201378,11.369570 22.664700,8.217461 
	C22.995075,13.093289 22.998285,18.007793 23.002037,23.378052 
z"/>
<path fill="#000000" opacity="1.000000" stroke="none" 
	d="
M24.465412,45.902168 
	C24.000095,38.921986 24.000109,32.002140 24.000130,24.624388 
	C30.847012,24.166479 37.693886,24.166479 45.023495,24.166479 
	C45.023495,27.628864 45.023495,30.863518 45.104912,34.556610 
	C45.186333,38.451946 45.186333,41.888847 45.186333,45.962502 
	C38.033585,45.962502 31.482162,45.962502 24.465412,45.902168 
z"/>
<path fill="#00832D" opacity="1.000000" stroke="none" 
	d="
M46.079865,35.234001 
	C50.371700,31.026123 54.843040,27.108833 59.626534,23.048378 
	C59.938694,30.535301 59.938694,38.165386 59.938694,47.439453 
	C54.738064,42.909637 50.498714,39.217113 46.079865,35.234001 
z"/>
<path fill="#000000" opacity="1.000000" stroke="none" 
	d="
M194.957413,38.180096 
	C200.154922,33.413193 204.958389,34.243088 205.695709,40.019760 
	C206.012924,42.505089 204.695740,45.856464 202.946472,47.699577 
	C201.910370,48.791233 198.008881,48.532856 196.407852,47.422424 
	C193.439224,45.363472 193.186279,41.917351 194.957413,38.180096 
z"/>
<path fill="#000000" opacity="1.000000" stroke="none" 
	d="
M231.300888,39.892693 
	C230.468414,39.699951 229.483810,39.253395 229.523361,39.126701 
	C230.708511,35.331959 234.362549,34.194103 238.725037,36.448822 
	C236.232910,37.621063 233.929535,38.704521 231.300888,39.892693 
z"/>
<path fill="#000000" opacity="1.000000" stroke="none" 
	d="
M167.064301,40.363911 
	C168.312485,36.317062 171.110397,33.985363 174.556412,35.320042 
	C176.837708,36.203609 179.499039,39.430706 179.586380,41.701138 
	C179.670517,43.887707 177.120499,46.948414 174.915543,48.277248 
	C171.192749,50.520817 167.255966,46.547619 167.064301,40.363911 
z"/>
<path fill="#000000" opacity="1.000000" stroke="none" 
	d="
M146.884064,35.021324 
	C151.636948,36.169712 153.776230,39.022007 152.673828,43.389549 
	C151.803360,46.838215 148.968933,49.629295 145.497330,48.655987 
	C143.275040,48.032940 140.767654,44.925793 140.240219,42.525314 
	C139.294128,38.219532 141.807938,35.375252 146.884064,35.021324 
z"/>
</svg>